<svg xmlns="http://www.w3.org/2000/svg" viewBox="0 0 24 24" fill="currentColor">
  <path d="M12 23c-3.31 0-6-2.69-6-6 0-1.74.75-3.31 1.94-4.41l.06-.06c.39-.39 1.02-.39 1.41 0s.39 1.02 0 1.41l-.06.06A3.95 3.95 0 0 0 8 17c0 2.21 1.79 4 4 4s4-1.79 4-4c0-1.19-.52-2.27-1.35-3l-.06-.06c-.39-.39-.39-1.02 0-1.41s1.02-.39 1.41 0l.06.06A5.95 5.95 0 0 1 18 17c0 3.31-2.69 6-6 6z" fill="#ef4444"/>
  <path d="M12 1s-5 4.68-5 10c0 2.76 2.24 5 5 5s5-2.24 5-5c0-5.32-5-10-5-10zm0 13c-1.66 0-3-1.34-3-3 0-1.12.62-2.49 1.17-3.37L12 4.5l1.83 3.13C14.38 8.51 15 9.88 15 11c0 1.66-1.34 3-3 3z" fill="#dc2626"/>
</svg>